# xmcd
#
# Track frame offsets:
#	150
#	15987
#	29911
#	46154
#	61853
#	78329
#	94158
#	109165
#	126483
#	142256
#	158250
#	175028
#	188526
#	207863
#
# Disc length: 2986 seconds
#
# Revision: 1
# Processed by: cddbd v1.5.2PL0 Copyright (c) Steve Scherf et al.
# Submitted via: audiograbber 1.83.01
#
DISCID=b30ba80e
DTITLE=JonesTM - HC200725
DYEAR=2007
DGENRE=Country
TTITLE0=Billy Currington - Tangled Up
TTITLE1=Clint Black - The Strong One
TTITLE2=Joanna Cotten - The Prize [Album Version]
TTITLE3=Devon Allen Johnson - Bet He Didn't Say That
TTITLE4=Hal Ketchum Feat. LeAnn Rimes  - In Front Of The Alamo
TTITLE5=Rick James - Taste
TTITLE6=O'Jays  - Why You Wanna Settle For Less
TTITLE7=Brian Auger's Oblivion Express  - Ghostown [Radio Edit]
TTITLE8=Urban Jazz Coalition  - Down To Get Up [Radio Single]
TTITLE9=Rick Braun and Richard Elliot  - R n R [Album Version]
TTITLE10=Marc Antoine - Hi-Lo Split [Radio Edit]
TTITLE11=Andre Ward - Chicago (Here We Go)
TTITLE12=Chrisette Michele  - Best Of Me [Main]
TTITLE13=Michael Buble - Everything
EXTD=
EXTT0=
EXTT1=
EXTT2=
EXTT3=
EXTT4=
EXTT5=
EXTT6=
EXTT7=
EXTT8=
EXTT9=
EXTT10=
EXTT11=
EXTT12=
EXTT13=
PLAYORDER=
